<?xml version="1.0" standalone="no"?>
<!DOCTYPE svg PUBLIC "-//W3C//DTD SVG 20010904//EN"
 "http://www.w3.org/TR/2001/REC-SVG-20010904/DTD/svg10.dtd">
<svg version="1.0" xmlns="http://www.w3.org/2000/svg"
 width="1024.000000pt" height="1024.000000pt" viewBox="0 0 1024.000000 1024.000000"
 preserveAspectRatio="xMidYMid meet">

<g transform="translate(0.000000,1024.000000) scale(0.100000,-0.100000)"
fill="#000000" stroke="none">
<path d="M4711 9120 c-46 -11 -82 -40 -103 -81 -16 -29 -18 -65 -18 -254 -1
-121 -4 -250 -9 -287 -11 -102 -19 -108 -224 -158 -95 -23 -252 -69 -350 -101
-97 -33 -187 -59 -198 -59 -44 0 -117 42 -146 83 -31 44 -31 51 -18 233 7 97
6 103 -20 162 -32 71 -93 133 -163 165 -71 33 -190 31 -257 -5 -110 -58 -178
-169 -178 -292 -1 -129 64 -220 199 -282 43 -20 90 -46 102 -58 54 -49 68
-148 31 -223 -16 -33 -46 -63 -121 -119 -86 -65 -163 -129 -316 -258 l-34 -29
-197 197 c-190 189 -199 196 -237 196 -21 0 -45 -4 -52 -8 -39 -25 -507 -494
-528 -529 -43 -72 -37 -82 188 -309 l200 -201 -72 -139 c-40 -76 -86 -154
-103 -171 l-31 -33 -130 0 c-233 -1 -334 -29 -423 -122 -66 -68 -98 -140 -98
-220 0 -60 3 -70 28 -95 22 -22 37 -28 72 -28 58 0 94 33 106 100 10 54 47
108 87 129 20 10 81 16 217 19 166 4 197 7 248 27 90 34 169 115 247 252 123
215 237 375 354 496 105 108 224 212 242 212 16 0 80 -133 67 -137 -31 -11
-146 -109 -218 -185 -92 -98 -154 -196 -224 -356 -61 -140 -86 -181 -161 -276
-75 -95 -174 -177 -269 -224 l-75 -37 -169 -5 -169 -5 -29 -33 c-40 -45 -40
-99 0 -144 l29 -33 179 0 c166 1 183 3 251 27 211 76 438 294 550 529 17 35
53 112 80 171 60 128 96 182 176 267 99 103 230 182 361 216 33 8 101 15 157
15 106 0 99 -3 155 68 67 86 163 78 228 -19 15 -23 41 -47 60 -55 44 -18 133
-18 178 1 l35 14 13 -31 c19 -46 66 -96 113 -121 34 -18 57 -22 141 -22 84 0
107 4 141 22 51 27 98 73 116 113 8 19 20 30 33 30 33 -1 100 -36 146 -77 39
-35 99 -117 99 -135 0 -4 -15 -8 -33 -8 -106 0 -423 -48 -596 -90 l-114 -28
-46 47 c-68 70 -163 112 -265 118 -94 6 -144 -5 -207 -46 -36 -24 -59 -30
-129 -35 -196 -16 -270 -33 -295 -69 -8 -12 -37 -27 -65 -34 -109 -28 -194
-120 -226 -243 -19 -74 -14 -142 15 -226 l19 -54 -120 -82 c-215 -147 -565
-437 -733 -607 l-69 -71 -256 0 c-140 0 -282 -4 -314 -10 -178 -29 -304 -166
-314 -341 l-5 -78 36 -36 c28 -28 43 -35 75 -35 55 0 102 45 102 98 0 91 48
159 127 181 41 12 343 15 343 4 0 -3 -22 -32 -48 -62 -27 -31 -67 -81 -90
-112 -31 -41 -55 -61 -94 -79 -100 -45 -198 -158 -238 -275 -25 -71 -27 -194
-5 -270 15 -51 15 -55 -10 -128 -76 -228 34 -470 255 -559 49 -20 73 -22 222
-23 100 0 171 -4 177 -10 20 -20 151 -295 151 -317 0 -5 -88 -99 -195 -209
l-195 -200 0 -46 0 -47 263 -264 c144 -145 276 -270 293 -278 63 -27 93 -8
284 182 97 96 179 174 184 174 4 0 56 -44 115 -98 58 -53 159 -142 224 -196
146 -121 159 -140 155 -222 -5 -88 -33 -125 -128 -171 -129 -63 -201 -150
-219 -263 -17 -109 18 -202 109 -283 92 -83 226 -105 327 -53 107 54 166 129
185 236 9 51 7 77 -8 150 -15 76 -16 95 -5 132 23 77 107 138 189 138 13 0 76
-19 140 -41 170 -60 349 -114 460 -140 170 -38 167 -32 159 -379 -6 -274 -2
-307 44 -356 48 -52 83 -55 510 -52 442 3 446 4 494 77 23 35 24 44 32 345 l8
309 25 18 c14 10 70 28 125 39 116 24 285 75 435 132 127 48 184 52 253 19 34
-16 55 -36 73 -67 24 -40 26 -51 20 -107 -18 -167 -18 -215 -1 -266 19 -59 99
-153 154 -180 33 -17 52 -23 121 -36 31 -6 125 12 164 32 48 25 116 95 144
148 36 67 38 195 6 266 -39 85 -106 145 -204 183 -83 33 -120 84 -120 166 0
75 23 113 109 182 42 34 134 114 205 177 70 64 141 127 157 140 l30 23 183
-181 184 -181 52 0 53 0 256 252 c141 138 264 261 273 272 11 13 18 38 18 64
0 49 -2 52 -262 318 -76 77 -138 145 -138 151 0 6 35 80 78 164 l77 154 147
-4 c160 -4 221 6 302 46 70 35 151 121 186 196 57 122 63 233 18 362 -23 66
-23 72 -9 105 10 24 15 68 16 140 0 100 -2 108 -36 180 -54 113 -157 217 -233
236 -22 5 -110 105 -205 235 -13 18 -8 19 131 19 98 0 160 -5 194 -15 72 -21
124 -82 124 -145 0 -42 23 -94 51 -114 13 -9 40 -16 60 -16 76 0 119 82 99
188 -28 154 -140 267 -298 301 -31 6 -160 11 -315 11 l-262 0 -125 123 c-192
187 -485 424 -733 592 -32 22 -60 42 -62 46 -3 3 4 31 15 62 44 124 19 270
-62 362 -40 45 -123 95 -159 95 -9 0 -24 11 -33 25 -9 13 -29 31 -45 40 -40
20 -189 45 -275 45 -62 0 -76 4 -115 30 -56 38 -99 50 -182 50 -118 0 -219
-41 -297 -120 l-50 -50 -93 25 c-127 33 -347 71 -499 85 -69 6 -131 13 -138
16 -9 3 -7 14 8 44 40 78 127 147 207 164 27 6 32 4 38 -15 14 -43 85 -108
141 -129 148 -55 315 1 378 127 l16 32 41 -14 c53 -19 132 -19 168 0 16 8 47
36 69 63 80 95 165 94 248 -3 l46 -55 92 0 c189 0 353 -74 506 -230 83 -83
144 -182 210 -340 122 -290 318 -502 562 -608 96 -41 203 -55 358 -46 108 7
116 9 142 35 47 47 34 128 -25 161 -13 7 -85 15 -177 19 -170 7 -218 19 -309
81 -146 100 -248 220 -327 387 -149 311 -169 344 -273 453 -38 41 -101 96
-140 123 -39 28 -70 53 -71 56 0 12 62 119 70 119 28 0 241 -197 335 -310 80
-98 126 -167 213 -323 89 -160 118 -202 175 -254 88 -82 139 -95 367 -97 162
-1 178 -3 215 -24 49 -28 81 -73 90 -127 20 -114 152 -139 200 -38 16 32 17
45 7 91 -16 76 -50 138 -107 197 -91 93 -167 115 -406 115 -138 0 -147 1 -166
23 -19 19 -173 305 -173 319 0 3 82 87 182 187 101 101 191 195 200 209 24 36
23 87 -2 127 -11 18 -135 144 -275 279 -250 243 -254 246 -296 246 -42 0 -46
-3 -241 -197 l-198 -196 -23 20 c-12 11 -35 32 -52 47 -35 32 -186 154 -299
241 -100 77 -121 111 -120 191 1 93 21 119 134 176 106 54 146 88 186 161 26
46 29 62 29 137 0 73 -4 93 -28 142 -31 63 -85 115 -156 150 -36 17 -63 22
-126 23 -69 0 -88 -4 -138 -29 -67 -34 -120 -89 -150 -155 -22 -48 -25 -109
-16 -282 4 -67 1 -79 -21 -112 -63 -92 -141 -97 -345 -23 -132 49 -286 92
-430 121 -150 31 -148 24 -143 374 3 251 2 268 -17 300 -26 44 -62 70 -111 81
-48 12 -776 11 -823 0z m-1321 -483 c35 -18 70 -74 70 -114 0 -26 -8 -43 -34
-69 -30 -30 -40 -34 -84 -34 -41 0 -55 5 -80 28 -55 52 -54 112 3 169 36 36
79 43 125 20z m3578 -7 c39 -24 66 -80 57 -120 -14 -62 -92 -107 -156 -90 -76
21 -104 118 -52 180 45 53 96 63 151 30z m-1715 -200 c183 -70 278 -251 233
-445 -21 -87 -50 -137 -115 -199 -117 -109 -281 -130 -423 -54 -231 123 -271
448 -76 623 111 100 246 126 381 75z m-1309 -747 c49 -103 42 -100 136 -53 44
22 122 55 173 73 85 29 102 31 222 32 123 0 133 -1 185 -28 30 -16 79 -50 108
-75 134 -117 216 -152 358 -152 138 0 221 35 344 145 35 32 89 70 120 84 50
24 66 26 180 26 111 0 134 -3 210 -29 47 -15 127 -48 179 -72 52 -24 95 -43
97 -42 1 2 17 34 36 72 18 38 38 71 43 73 28 9 508 -318 491 -334 -2 -2 -30 3
-62 11 -110 27 -211 38 -320 34 -125 -5 -151 -14 -215 -83 -41 -44 -44 -45
-105 -45 l-62 0 -13 37 c-17 54 -113 146 -168 162 -92 27 -232 9 -287 -37 -32
-27 -82 -100 -89 -131 -5 -25 -11 -28 -77 -39 -40 -7 -96 -26 -129 -44 -55
-29 -131 -98 -157 -143 -10 -19 -16 -15 -79 52 -37 39 -86 80 -108 91 -50 25
-141 52 -174 52 -22 0 -30 9 -50 56 -44 102 -135 154 -265 154 -127 -1 -196
-42 -247 -145 l-32 -65 -59 0 c-57 0 -60 1 -107 50 -53 55 -78 67 -166 81 -83
14 -282 -9 -412 -47 -47 -13 -19 14 108 106 110 80 340 227 360 229 3 1 18
-25 33 -56z m582 -361 c64 -51 53 -147 -19 -177 -68 -28 -137 20 -137 97 0 79
97 129 156 80z m1313 -3 c62 -58 41 -157 -37 -179 -105 -29 -170 105 -87 178
34 29 93 30 124 1z m-1843 -584 c31 -20 26 -28 -26 -45 -40 -13 -41 -13 -75
20 -19 19 -35 38 -35 43 0 15 108 0 136 -18z m2384 12 c0 -8 -11 -24 -24 -36
-24 -23 -24 -23 -83 -6 l-58 18 40 18 c48 22 125 26 125 6z m-980 -77 c400
-42 853 -181 1270 -390 185 -93 265 -139 448 -261 274 -184 543 -402 785 -639
128 -124 286 -296 295 -318 1 -4 -40 -8 -90 -10 -51 -1 -109 -6 -128 -10 -35
-8 -36 -6 -149 110 -267 278 -618 561 -946 763 -438 270 -961 464 -1430 531
-146 21 -510 24 -630 5 -305 -47 -542 -111 -840 -228 -539 -211 -1112 -604
-1583 -1087 l-94 -95 -79 10 c-43 6 -101 9 -129 7 -27 -1 -49 0 -48 4 8 22
251 277 368 387 572 536 1226 924 1860 1105 171 48 376 93 490 105 52 6 109
13 125 15 69 8 417 5 505 -4z m-1737 -24 c18 -7 40 -22 50 -33 17 -20 16 -21
-39 -42 -32 -12 -61 -18 -64 -14 -4 4 -10 29 -13 56 -4 41 -2 47 15 47 10 0
33 -6 51 -14z m2983 -38 c-4 -29 -9 -54 -11 -56 -4 -5 -96 28 -108 38 -10 9
28 48 58 60 11 5 31 9 44 9 23 1 23 -1 17 -51z m-3246 -35 c0 -16 3 -44 6 -64
l6 -37 -87 -51 c-48 -28 -88 -51 -90 -51 -2 0 -8 23 -14 52 -11 48 -10 53 15
89 30 44 57 64 105 77 53 16 59 14 59 -15z m3526 11 c18 -9 50 -34 70 -56 34
-38 36 -44 32 -94 -3 -30 -7 -57 -11 -60 -3 -4 -37 14 -74 38 -37 25 -78 50
-89 56 -14 8 -20 19 -18 34 13 93 15 98 35 98 12 0 36 -7 55 -16z m-2302 -677
c52 -29 123 -117 132 -163 10 -52 -12 -134 -45 -175 -69 -83 -197 -106 -294
-51 -99 56 -141 170 -98 268 43 95 113 144 211 144 39 0 67 -7 94 -23z m-688
-104 c-99 -168 -155 -372 -163 -598 -9 -222 16 -392 83 -573 134 -361 436
-648 818 -779 149 -51 255 -66 451 -66 264 0 404 32 628 144 129 64 158 83
261 173 249 217 381 444 441 759 41 213 23 519 -42 717 -20 61 -121 270 -140
289 -26 25 1 24 63 -4 33 -14 68 -30 79 -34 11 -5 113 -55 226 -111 145 -72
206 -108 205 -119 -1 -11 7 -16 21 -15 13 1 20 -3 16 -9 -4 -6 0 -8 11 -4 11
5 16 3 14 -5 -2 -6 -14 -12 -26 -13 -11 -1 -19 2 -16 7 3 4 -1 8 -10 8 -8 0
-16 5 -18 10 -2 6 -9 1 -15 -9 -9 -15 -10 -22 -1 -27 6 -4 8 -3 4 4 -3 6 -2
13 4 17 5 3 15 -5 21 -19 12 -25 39 -43 39 -26 0 6 -5 10 -11 10 -5 0 -8 4 -4
9 3 5 17 8 30 5 14 -2 25 0 25 6 0 6 8 5 20 -2 11 -7 20 -19 20 -26 0 -7 5
-10 12 -6 6 4 8 3 4 -4 -3 -6 -2 -13 4 -17 5 -3 10 0 10 7 0 7 9 4 22 -10 12
-12 20 -23 17 -24 -41 -26 -89 -46 -89 -38 0 7 -8 9 -20 5 -11 -3 -20 -3 -20
2 0 5 12 10 28 11 35 3 82 22 82 33 0 5 -11 7 -25 5 -16 -3 -23 -1 -19 6 4 6
-1 8 -11 6 -10 -1 -20 -9 -23 -17 -3 -8 0 -11 6 -7 6 3 14 1 18 -6 4 -7 4 -10
-1 -6 -4 4 -17 2 -28 -3 -17 -10 -19 -9 -15 9 4 15 2 19 -8 15 -10 -3 -12 0
-8 10 3 9 12 18 20 21 9 3 12 1 9 -4 -3 -6 -2 -10 4 -10 15 0 21 14 11 30 -7
11 -11 11 -23 1 -8 -6 -17 -8 -19 -4 -3 4 -3 3 -2 -4 2 -6 -2 -14 -9 -16 -9
-3 -9 -10 1 -26 10 -17 10 -26 2 -36 -13 -16 3 -30 25 -21 9 3 15 -1 15 -9 0
-7 5 -17 12 -21 7 -4 8 -3 4 4 -3 6 2 16 13 21 22 12 58 15 48 4 -4 -3 0 -14
9 -24 15 -16 14 -19 -5 -31 -28 -17 -27 -32 2 -17 19 11 20 10 10 -2 -10 -12
-9 -18 6 -31 10 -9 21 -22 24 -29 5 -11 8 -10 17 4 14 21 34 23 26 1 -5 -12
-2 -15 10 -10 8 3 20 6 25 6 6 0 7 5 3 12 -4 7 -3 8 4 4 6 -4 9 -13 5 -21 -3
-8 0 -15 6 -15 6 0 11 5 11 10 0 6 5 10 11 10 6 0 1 -13 -10 -28 -23 -33 -22
-52 2 -77 17 -17 18 -17 24 4 6 24 31 28 39 7 3 -8 0 -24 -6 -36 -9 -16 -8
-25 1 -36 10 -12 14 -12 26 6 12 18 13 24 1 38 -12 15 -11 16 4 4 10 -8 23
-10 30 -6 10 6 9 3 -1 -9 -8 -10 -9 -17 -3 -17 6 0 14 5 17 10 3 6 11 10 16
10 5 0 0 -10 -11 -22 -17 -18 -23 -20 -29 -9 -7 11 -11 9 -20 -8 -7 -12 -9
-26 -6 -31 9 -15 45 -12 45 4 0 7 7 19 15 26 10 9 15 9 15 1 0 -6 -4 -11 -9
-11 -13 0 -20 -63 -9 -77 6 -7 14 -10 19 -7 5 3 9 0 9 -7 0 -6 20 -31 45 -55
24 -24 42 -44 39 -44 -2 0 3 -11 12 -25 l16 -25 -208 -208 c-228 -226 -265
-261 -399 -373 -306 -257 -611 -446 -885 -547 -317 -118 -538 -162 -818 -162
-515 0 -971 155 -1455 493 -116 82 -388 300 -477 381 -126 118 -349 352 -345
363 2 7 -2 10 -8 7 -7 -2 -26 9 -41 25 -28 30 -29 31 -11 57 9 15 42 51 72 80
32 32 51 59 47 66 -4 7 -3 8 4 4 7 -4 12 -2 12 4 0 6 5 8 10 5 6 -3 10 -1 10
4 0 6 7 11 15 11 8 0 15 7 15 16 0 10 5 14 16 10 8 -3 12 -2 9 4 -3 5 7 23 22
40 15 18 28 39 28 47 0 9 6 18 13 20 6 3 12 0 12 -7 0 -6 -4 -8 -10 -5 -5 3
-10 1 -10 -4 0 -6 7 -11 15 -11 8 0 15 6 15 14 0 8 9 18 20 21 11 3 20 11 20
17 0 6 11 21 25 34 14 13 25 28 25 34 0 6 4 9 9 5 5 -3 12 -1 16 4 3 6 -4 15
-15 21 -11 6 -20 16 -20 23 0 7 4 6 10 -3 5 -8 10 -11 10 -6 0 6 6 1 14 -10
15 -20 26 -16 30 12 2 10 9 20 16 22 8 3 10 0 5 -9 -5 -8 4 -3 18 10 19 17 24
28 17 36 -7 8 -5 12 5 12 8 0 15 -4 15 -9 0 -5 5 -6 10 -3 6 4 8 10 6 14 -3 4
9 13 25 20 16 7 27 16 25 19 -2 4 3 16 11 27 13 16 15 17 10 3 -4 -10 -2 -18
3 -18 6 0 10 7 10 15 0 9 6 12 18 9 13 -5 14 -4 3 4 -8 6 -12 20 -9 36 3 14 1
23 -3 20 -5 -3 -9 -11 -9 -19 0 -8 -4 -17 -10 -20 -5 -3 -7 0 -4 8 3 8 -2 17
-11 20 -12 5 -14 1 -9 -21 4 -22 3 -24 -5 -10 -6 9 -19 14 -29 11 -10 -2 -24
3 -31 11 -11 14 -11 16 4 16 10 0 15 3 12 7 -9 8 28 33 58 39 16 3 27 -2 33
-13 9 -15 12 -15 29 -3 16 13 17 13 6 -1 -7 -9 -10 -19 -6 -22 3 -4 1 -7 -5
-7 -6 0 -9 -7 -6 -15 7 -17 34 -21 34 -5 0 6 -5 10 -10 10 -7 0 -7 7 0 21 6
11 13 30 15 41 3 12 10 25 17 30 10 6 10 8 -2 8 -20 0 19 27 51 35 21 5 24 2
25 -20 2 -25 1 -25 -22 -10 -13 8 -24 13 -24 10 0 -3 0 -8 0 -12 0 -5 4 -8 10
-8 17 0 33 -22 21 -29 -6 -4 -11 -3 -11 1 0 5 -8 9 -19 9 -13 0 -17 -6 -14
-21 4 -15 2 -17 -5 -6 -6 8 -12 9 -16 3 -10 -17 13 -25 31 -10 9 7 25 12 36
10 12 -2 17 1 13 7 -4 6 -3 11 2 11 5 0 8 17 7 38 -3 52 -4 54 -17 46 -10 -5
-10 -3 0 7 11 12 14 12 22 -1 8 -13 10 -12 10 3 0 13 26 30 93 61 151 70 168
77 178 71 5 -4 9 -1 9 4 0 6 9 11 20 11 11 0 20 6 21 13 0 9 2 9 6 0 4 -10 9
-10 26 2 11 8 23 13 25 11 2 -2 -17 -39 -42 -83z m-456 -168 c0 -8 -10 -19
-21 -26 -15 -8 -19 -8 -15 0 4 6 1 11 -6 11 -10 0 18 21 40 29 1 1 2 -6 2 -14z
m2057 -108 c24 -15 59 -52 79 -82 31 -46 37 -65 42 -125 4 -60 1 -77 -18 -114
-29 -58 -86 -115 -135 -137 -130 -59 -308 26 -351 168 -18 58 -18 77 1 140 20
66 72 133 126 161 38 19 56 22 129 20 73 -3 91 -7 127 -31z m-2197 -19 c0 -13
-23 -5 -28 10 -2 7 2 10 12 6 9 -3 16 -11 16 -16z m-90 -3 c0 -2 -10 -9 -22
-15 -22 -11 -22 -10 -4 4 21 17 26 19 26 11z m30 -15 c0 -5 -8 -10 -17 -10
-15 0 -16 2 -3 10 19 12 20 12 20 0z m75 -23 c16 -4 14 -5 -7 -6 -14 0 -28 -7
-31 -13 -2 -7 -4 -1 -4 15 0 19 3 25 11 18 6 -5 20 -11 31 -14z m3785 -79 c0
-4 -10 2 -22 14 -20 20 -23 21 -26 5 -2 -9 -8 -15 -13 -11 -5 3 -6 10 -3 16 4
7 2 8 -4 4 -7 -4 -12 -2 -12 3 0 6 5 11 12 11 9 0 9 3 0 12 -8 8 -15 8 -27 -2
-18 -15 -20 -5 -3 14 10 11 20 7 55 -23 24 -19 43 -39 43 -43z m-3904 42 c0
-23 -11 -27 -19 -6 -3 8 -1 17 6 20 7 2 12 5 12 5 1 1 1 -8 1 -19z m1375 -27
c13 -15 16 -21 7 -14 -10 7 -18 12 -19 10 -8 -38 -7 -40 14 -34 17 5 19 4 7
-4 -8 -5 -11 -13 -8 -17 13 -12 -12 -44 -30 -38 -16 5 -16 5 1 -9 18 -15 24
-32 7 -22 -5 3 -10 1 -10 -4 0 -6 6 -11 13 -11 8 0 7 -4 -3 -10 -8 -5 -11 -10
-6 -10 5 0 2 -8 -5 -17 -8 -9 -9 -14 -3 -10 8 4 13 -24 17 -89 11 -166 74
-299 181 -386 176 -142 455 -163 629 -47 62 41 162 150 192 209 33 65 63 180
68 258 3 35 7 66 11 69 3 4 6 -1 6 -10 0 -23 36 -22 49 1 19 32 12 -129 -9
-212 -31 -121 -82 -209 -174 -301 -45 -44 -81 -83 -81 -87 0 -12 -66 -54 -107
-69 -21 -7 -38 -16 -38 -20 0 -3 -12 -4 -27 -2 -17 3 -23 1 -16 -4 6 -4 -38
-9 -100 -11 -87 -2 -130 2 -191 18 -99 25 -217 83 -270 134 -23 21 -32 32 -21
25 11 -8 -8 20 -42 61 -97 118 -142 241 -146 396 -2 62 1 75 17 87 15 11 16
16 6 22 -9 5 -11 4 -6 -3 4 -7 2 -12 -3 -12 -14 0 -3 73 13 82 6 4 7 8 3 8 -5
0 -5 6 0 13 4 6 8 17 8 22 0 6 7 10 15 10 8 0 16 6 16 13 1 6 3 15 4 20 1 4 2
10 1 15 -2 12 5 8 30 -20z m2434 7 c-3 -5 -1 -10 6 -10 7 0 9 -8 6 -21 -4 -15
-2 -19 8 -15 11 4 12 0 5 -20 -9 -23 -8 -25 12 -19 21 5 21 5 5 -6 -24 -14
-36 -3 -40 39 -2 18 -7 35 -10 39 -11 10 -8 23 4 23 5 0 7 -4 4 -10z m-3936
-43 c0 -9 -2 -8 -6 1 -2 6 -10 9 -15 6 -7 -4 -8 -2 -4 5 9 13 26 5 25 -12z
m48 3 c-2 -11 -9 -25 -15 -30 -9 -7 -9 -7 -2 2 6 8 5 17 -3 27 -9 12 -9 13 1
7 6 -4 12 -2 12 3 0 6 2 11 5 11 3 0 3 -9 2 -20z m1235 6 c7 4 8 2 4 -4 -5 -8
1 -12 18 -12 13 0 26 3 29 8 2 4 2 1 1 -6 -43 -175 -22 -375 55 -519 46 -85
112 -170 173 -220 74 -62 230 -137 266 -129 18 5 23 4 13 -3 -23 -15 68 -26
199 -25 136 2 202 20 323 91 201 117 321 301 347 534 8 73 -1 236 -15 259 -3
5 -4 10 -1 10 4 0 13 -18 22 -40 16 -40 29 -50 36 -28 3 7 12 -3 21 -21 22
-45 23 -187 1 -284 -18 -81 -76 -212 -124 -282 -17 -25 -59 -76 -93 -112 -34
-36 -62 -72 -62 -81 0 -14 -65 -52 -175 -102 -30 -14 -55 -31 -55 -39 0 -16
-24 -24 -135 -46 l-75 -15 63 5 c144 11 278 66 413 167 205 155 332 387 346
636 4 72 9 100 17 92 16 -16 36 -12 36 8 0 14 2 15 10 2 15 -23 12 -172 -5
-255 -27 -129 -97 -278 -182 -386 -43 -56 -155 -160 -223 -210 -64 -46 -218
-107 -345 -136 -102 -23 -300 -13 -418 21 -238 70 -447 231 -567 436 -77 132
-132 344 -128 493 1 62 1 62 8 17 4 -25 8 -39 8 -32 1 6 11 12 22 12 16 0 20
-7 22 -32 1 -18 4 -4 8 32 l7 65 1 -82 c4 -161 44 -301 129 -446 48 -82 148
-193 213 -237 l35 -24 -25 29 -25 29 33 -23 c18 -12 30 -27 27 -32 -4 -5 2 -6
11 -2 11 4 15 3 10 -5 -3 -6 -3 -13 2 -16 15 -9 9 29 -6 40 -12 9 -12 13 -2
19 9 6 11 4 5 -5 -6 -10 -4 -12 10 -7 9 4 24 2 32 -4 7 -7 16 -10 19 -7 2 3
-17 19 -44 37 -56 36 -164 145 -209 211 -70 104 -118 249 -129 395 -6 84 10
238 26 243 5 2 8 9 6 15 -1 7 -1 9 1 4 3 -4 10 -4 15 -1z m2763 -26 c17 -19
17 -20 1 -20 -9 0 -14 5 -11 10 3 6 1 10 -4 10 -6 0 -11 5 -11 10 0 14 5 13
25 -10z m-4067 -35 c-3 -3 -9 2 -12 12 -6 14 -5 15 5 6 7 -7 10 -15 7 -18z
m4039 4 c2 -16 -1 -19 -9 -11 -5 5 -7 15 -4 21 10 15 12 14 13 -10z m73 1 c-6
-11 -16 -17 -22 -14 -7 5 -5 12 7 21 25 18 28 17 15 -7z m-4143 -15 c0 -8 -4
-12 -9 -9 -5 3 -6 10 -3 15 9 13 12 11 12 -6z m4193 -20 c11 -13 10 -14 -4 -9
-9 3 -16 10 -16 15 0 13 6 11 20 -6z m-4125 -7 c3 -2 -4 -13 -15 -23 -11 -10
-20 -13 -20 -7 0 7 5 12 12 12 6 0 4 6 -7 13 -17 13 -17 14 3 12 12 -1 24 -4
27 -7z m4075 -33 c0 -19 -4 -23 -17 -18 -11 4 -12 8 -5 11 7 2 12 10 12 18 0
8 2 14 5 14 3 0 5 -11 5 -25z m95 15 c3 -6 -1 -7 -9 -4 -18 7 -21 14 -7 14 6
0 13 -4 16 -10z m-33 -52 c-7 -7 -12 -8 -12 -2 0 14 12 26 19 19 2 -3 -1 -11
-7 -17z m-75 -4 c-3 -3 -12 -4 -19 -1 -8 3 -5 6 6 6 11 1 17 -2 13 -5z m63
-58 c0 -3 -4 -8 -10 -11 -5 -3 -10 -1 -10 4 0 6 5 11 10 11 6 0 10 -2 10 -4z
m120 -81 c0 -2 -10 -9 -22 -15 -22 -11 -22 -10 -4 4 21 17 26 19 26 11z
m-2580 -31 c0 -8 -19 -13 -24 -6 -3 5 1 9 9 9 8 0 15 -2 15 -3z m-60 -28 c0
-2 -7 -7 -16 -10 -8 -3 -12 -2 -9 4 6 10 25 14 25 6z m81 -30 c0 -3 19 -26 42
-52 23 -26 41 -51 40 -55 -2 -5 2 -10 7 -10 6 -1 15 -2 22 -3 6 0 13 -7 16
-15 3 -8 0 -11 -7 -7 -21 14 -52 16 -44 3 4 -7 0 -6 -10 2 -18 15 -23 26 -7
16 6 -3 10 -2 10 4 0 5 -5 13 -10 16 -6 4 -8 10 -5 15 3 4 -3 14 -12 21 -15
12 -16 12 -10 -4 4 -10 3 -16 -2 -13 -5 3 -12 -1 -15 -10 -11 -28 -6 -39 9
-20 11 14 15 16 15 5 0 -22 -13 -34 -40 -36 -18 -2 -20 -1 -8 5 11 5 14 12 9
21 -6 9 -10 10 -16 2 -5 -9 -10 -9 -21 0 -11 9 -11 15 -3 25 6 8 9 15 5 15 -3
1 -9 2 -13 3 -5 1 -14 5 -21 10 -11 6 -11 11 0 24 11 13 11 15 -3 10 -9 -4
-16 -1 -16 7 0 11 5 11 20 4 10 -6 16 -13 13 -17 -4 -3 4 -16 16 -29 19 -20
20 -25 8 -33 -9 -6 -10 -10 -3 -10 6 0 15 5 18 10 4 6 11 8 16 5 5 -4 9 -1 9
4 0 6 -5 11 -11 11 -6 0 -9 6 -6 14 3 7 0 20 -6 27 -10 11 -9 11 5 0 10 -7 15
-17 12 -22 -3 -5 -1 -9 5 -9 21 0 21 20 0 39 -17 16 -26 18 -36 10 -7 -6 -13
-9 -13 -5 0 16 3 21 11 18 5 -1 13 6 16 15 6 14 16 6 14 -11z m-66 4 c3 -6 -1
-7 -9 -4 -18 7 -21 14 -7 14 6 0 13 -4 16 -10z m700 -80 c3 -5 1 -10 -4 -10
-6 0 -11 5 -11 10 0 6 2 10 4 10 3 0 8 -4 11 -10z m-52 -13 c3 -7 -3 -13 -14
-14 -15 -1 -16 1 -6 12 15 18 14 18 20 2z m40 -14 c-7 -2 -13 -9 -13 -14 0 -6
5 -7 10 -4 14 8 8 -16 -7 -32 -6 -7 -16 -13 -22 -13 -11 0 -26 39 -17 47 3 4
6 0 6 -9 0 -8 7 -15 15 -15 10 0 14 6 10 15 -6 17 2 32 18 31 9 0 9 -2 0 -6z
m-3313 -14 c256 -31 498 -175 827 -493 l93 -89 -35 -62 -35 -63 49 -35 49 -36
-25 -62 c-54 -134 -11 -313 97 -398 26 -20 61 -43 79 -50 26 -11 31 -19 31
-46 0 -42 17 -59 82 -82 42 -14 82 -18 196 -17 108 0 142 -3 142 -13 0 -22 57
-78 107 -105 96 -52 214 -55 320 -8 52 23 116 79 139 122 l14 27 48 -15 c201
-63 515 -124 640 -124 65 0 66 -11 11 -74 -48 -54 -107 -91 -166 -104 l-42
-10 -30 53 c-50 89 -123 125 -251 125 -100 0 -167 -32 -216 -102 -18 -26 -34
-52 -36 -58 -2 -7 -27 -5 -72 7 -88 21 -164 9 -210 -36 -43 -40 -68 -51 -120
-51 -53 0 -96 31 -126 91 -11 21 -24 40 -30 44 -6 3 -63 10 -128 15 -190 15
-325 72 -458 194 -125 114 -207 259 -250 442 -66 281 -122 411 -230 538 -169
199 -369 296 -614 299 -120 2 -194 -16 -274 -65 l-49 -30 6 37 c19 118 139
211 301 235 74 11 74 11 166 -1z m6258 -18 c104 -32 182 -102 213 -189 13 -39
5 -70 -14 -54 -36 30 -143 73 -207 83 -228 35 -495 -68 -672 -259 -126 -136
-193 -273 -252 -515 -65 -264 -141 -405 -284 -523 -122 -101 -301 -174 -426
-174 -102 0 -118 -7 -151 -62 -37 -63 -76 -88 -136 -88 -45 0 -64 9 -146 70
-41 29 -138 37 -203 16 -29 -10 -53 -16 -55 -14 -1 2 -12 21 -23 43 -42 83
-124 128 -233 127 -125 -1 -191 -33 -247 -117 -19 -28 -38 -51 -43 -53 -5 -2
-33 4 -63 12 -58 17 -145 86 -171 136 l-14 27 95 7 c156 11 403 60 569 112 62
20 80 23 84 13 10 -32 106 -119 154 -140 73 -33 229 -34 298 -3 53 25 119 87
119 112 0 15 15 17 158 17 140 1 163 3 216 24 l58 23 -6 38 -6 38 63 34 c76
42 130 109 157 197 28 89 24 136 -24 286 -5 16 3 27 44 54 27 19 50 38 50 42
0 5 -18 34 -40 65 l-39 56 52 47 c28 25 90 81 137 125 214 198 347 286 535
356 166 62 322 72 453 31z m-3017 10 c-8 -5 -12 -15 -9 -23 4 -10 -2 -14 -22
-13 -18 0 -26 4 -23 13 4 9 9 10 19 1 11 -9 14 -7 14 10 0 13 6 21 18 21 14 0
14 -2 3 -9z m-412 -27 c10 7 71 -13 71 -23 0 -4 -10 -8 -22 -8 -16 -2 -19 0
-10 6 9 5 3 8 -16 7 -21 -1 -27 -4 -21 -12 5 -6 6 -15 2 -20 -4 -5 -1 -4 6 3
9 8 20 9 31 3 13 -7 22 -5 30 5 13 16 35 21 26 6 -3 -5 17 -8 44 -6 28 1 50
-1 50 -6 0 -5 5 -9 11 -9 5 0 7 5 4 10 -3 6 3 10 15 10 19 0 20 -1 5 -24 -16
-23 -16 -24 25 -23 43 1 69 -12 29 -14 -13 -1 -29 -1 -36 0 -6 1 -14 -2 -17
-7 -5 -8 74 -5 82 3 2 2 -2 12 -9 24 -7 11 -9 24 -5 28 5 4 11 2 13 -4 3 -7
12 -13 21 -13 15 0 15 2 2 11 -13 9 -12 10 3 5 9 -3 17 -1 17 4 0 5 -8 11 -17
13 -17 4 -17 5 -1 6 10 0 22 -8 28 -19 6 -11 15 -20 21 -20 6 0 8 4 5 8 -3 5
1 9 9 9 8 0 15 -4 15 -8 0 -10 -46 -38 -67 -42 -10 -1 -23 -6 -29 -9 -32 -21
-136 -28 -218 -15 -56 9 -107 27 -101 37 3 4 -3 6 -12 4 -10 -3 -31 5 -48 17
-29 19 -29 20 -5 15 14 -3 20 -3 13 0 -7 3 -9 12 -6 20 3 10 -2 14 -18 13 -23
0 -23 -1 -4 -9 17 -7 16 -8 -8 -7 -35 2 -56 22 -24 24 31 2 55 8 63 16 4 3 15
2 26 -4 10 -5 22 -8 27 -5z m345 1 c-4 -8 -13 -15 -22 -15 -13 0 -12 3 4 15
24 18 25 18 18 0z m98 -40 c-3 -5 -7 -4 -10 3 -2 7 -8 10 -13 7 -5 -4 -6 1 -3
9 5 12 9 13 19 3 7 -7 10 -16 7 -22z m-155 2 c-15 -5 -27 -15 -27 -23 0 -8 -7
-14 -15 -14 -8 0 -15 3 -15 8 1 10 30 48 30 38 0 -4 8 -3 17 3 10 5 22 7 27 3
6 -3 -2 -10 -17 -15z m258 -157 c-3 -5 -11 -10 -16 -10 -6 0 -7 5 -4 10 3 6
11 10 16 10 6 0 7 -4 4 -10z m587 -42 c-8 -8 -9 -4 -5 13 4 13 8 18 11 10 2
-7 -1 -18 -6 -23z m-47 -68 c3 -5 1 -10 -4 -10 -6 0 -11 5 -11 10 0 6 2 10 4
10 3 0 8 -4 11 -10z m-1728 -14 c0 -8 -6 -12 -15 -9 -11 5 -11 7 0 14 7 5 13
9 14 9 0 0 1 -6 1 -14z m1704 -3 c13 -16 12 -17 -3 -4 -10 7 -18 15 -18 17 0
8 8 3 21 -13z m-951 -13 c0 -5 -7 -10 -16 -10 -8 0 -12 5 -9 10 3 6 10 10 16
10 5 0 9 -4 9 -10z m188 -5 c8 -8 -40 -4 -68 6 -19 6 -14 7 19 4 24 -3 46 -7
49 -10z m39 9 c-3 -3 -12 -4 -19 -1 -8 3 -5 6 6 6 11 1 17 -2 13 -5z m696 -31
c-3 -7 -8 -13 -12 -13 -4 0 -8 6 -8 13 0 8 6 14 13 14 7 0 10 -6 7 -14z
m-3841 -19 c175 -63 326 -208 399 -384 16 -38 41 -120 54 -182 75 -341 189
-527 449 -733 l38 -31 -37 -62 -37 -62 -32 22 c-60 43 -262 254 -313 330 -29
41 -94 160 -145 263 -106 217 -146 266 -254 317 -66 31 -68 31 -278 37 l-211
6 -42 30 c-80 57 -116 148 -96 238 9 46 14 47 78 23 49 -18 265 -22 298 -5 36
19 57 52 57 92 0 77 -45 106 -170 108 -100 2 -35 17 77 18 76 1 105 -4 165
-25z m2224 14 c4 -7 3 -10 -1 -5 -5 4 -16 0 -26 -9 -13 -12 -19 -12 -25 -3 -4
7 -3 10 3 6 6 -4 16 0 23 8 15 18 17 18 26 3z m1576 3 c8 11 9 11 6 1 -4 -16
-22 -18 -25 -2 -1 7 0 6 4 -1 4 -8 8 -7 15 2z m2433 -1 c24 -6 19 -8 -30 -9
-118 -2 -162 -28 -172 -100 -5 -36 -2 -44 30 -76 l35 -35 129 0 c99 1 140 5
183 20 30 10 57 16 60 13 3 -2 5 -37 5 -76 -1 -78 -16 -119 -64 -170 -52 -57
-69 -61 -291 -67 -204 -6 -205 -6 -271 -38 -105 -50 -162 -119 -254 -309 -85
-174 -139 -263 -226 -369 -65 -80 -245 -254 -263 -254 -12 0 -84 126 -76 133
3 2 28 20 56 40 66 47 190 177 241 253 83 123 107 180 169 419 52 200 89 282
172 387 97 122 208 199 332 232 58 16 185 19 235 6z m-3976 -49 c2 -1 -2 -8
-9 -16 -6 -8 -9 -19 -6 -24 4 -5 1 -13 -5 -17 -8 -4 -9 -3 -5 4 4 7 2 12 -4
12 -6 0 -9 4 -6 9 3 5 -1 12 -10 15 -33 13 3 26 45 17z m1516 -16 c6 0 13 4
17 10 5 7 8 6 8 -1 0 -30 -51 -40 -56 -11 -1 11 2 14 9 10 7 -4 17 -8 22 -8z
m-1488 -30 c0 -6 -6 -12 -12 -12 -6 0 -12 6 -12 12 0 6 6 12 12 12 6 0 12 -6
12 -12z m47 -16 c-3 -6 2 -9 12 -7 16 2 18 -2 16 -27 -3 -28 -3 -29 11 -11 11
15 16 16 22 6 5 -9 4 -11 -3 -6 -11 7 -17 -7 -12 -29 1 -5 3 -14 4 -20 1 -5 5
-15 8 -21 4 -6 1 -11 -7 -11 -8 0 -12 4 -10 7 3 4 -6 19 -20 34 -13 14 -20 26
-15 26 6 0 10 9 10 21 0 14 -5 19 -13 16 -8 -3 -20 -1 -28 4 -10 6 -11 9 -1 9
10 0 10 5 2 21 -11 19 -10 20 10 9 11 -6 18 -16 14 -21z m1326 27 c0 -3 -4 -8
-10 -11 -5 -3 -10 -1 -10 4 0 6 5 11 10 11 6 0 10 -2 10 -4z m78 -23 c13 11
14 9 1 -11 -8 -12 -15 -18 -17 -12 -2 6 -8 8 -13 4 -5 -3 -9 3 -9 12 0 14 3
15 12 6 9 -9 15 -9 26 1z m-88 -52 c-11 -22 -1 -28 17 -10 6 6 9 18 6 25 -8
23 5 16 18 -8 6 -13 8 -20 4 -16 -4 4 -14 0 -21 -10 -12 -16 -15 -16 -45 1
-30 17 -31 17 -25 0 5 -16 5 -16 -6 -2 -7 9 -20 14 -28 11 -8 -3 -12 -2 -9 2
11 11 48 15 54 5 4 -5 11 -9 17 -9 6 0 5 7 -3 17 -8 10 -9 14 -2 10 6 -4 15
-2 18 4 12 19 17 1 5 -20z m-1350 -11 c6 -11 8 -20 6 -20 -3 0 -10 9 -16 20
-6 11 -8 20 -6 20 3 0 10 -9 16 -20z m155 -8 c-3 -3 -11 0 -18 7 -9 10 -8 11
6 5 10 -3 15 -9 12 -12z m-32 -5 c3 -8 0 -14 -7 -14 -7 0 -13 6 -13 14 0 7 4
13 8 13 4 0 9 -6 12 -13z m1158 -35 c6 -7 14 -10 18 -6 3 4 0 9 -6 11 -7 3
-13 9 -13 14 0 6 8 6 19 -1 14 -7 21 -6 23 2 3 9 6 9 12 0 4 -7 -10 -23 -40
-42 -45 -28 -49 -29 -66 -13 -10 9 -18 23 -17 32 0 14 1 13 7 -1 5 -12 12 -14
21 -9 17 11 6 31 -17 31 -13 0 -13 2 4 15 17 12 20 12 31 -3 7 -9 17 -23 24
-30z m-1116 19 c3 -5 0 -13 -6 -17 -7 -4 -9 -3 -5 4 3 5 0 13 -6 15 -9 4 -10
6 -1 6 6 1 14 -3 18 -8z m50 -19 c-3 -3 -11 0 -18 7 -9 10 -8 11 6 5 10 -3 15
-9 12 -12z m-45 -61 c0 -6 6 -8 13 -5 8 3 20 -3 28 -12 12 -16 12 -17 -4 -11
-10 4 -23 7 -28 7 -5 0 -14 11 -19 25 -5 14 -15 25 -21 25 -8 0 -8 -4 1 -15
11 -13 10 -14 -2 -10 -8 3 -15 18 -15 34 l0 29 24 -28 c13 -15 23 -33 23 -39z
m987 23 c-15 -14 -27 -19 -27 -13 0 6 -8 18 -17 26 -16 11 -14 12 11 1 25 -11
31 -10 40 4 6 9 12 15 15 12 3 -3 -7 -16 -22 -30z m40 17 c-3 -13 0 -18 8 -15
7 3 15 -2 18 -10 4 -11 1 -13 -10 -9 -10 4 -14 2 -10 -4 8 -12 -63 -52 -82
-45 -9 3 -11 0 -6 -8 5 -8 4 -11 -2 -7 -5 3 -23 -1 -39 -9 -68 -36 -186 -56
-356 -60 l-168 -4 -1 22 c-1 19 -2 20 -6 4 -4 -15 -11 -17 -46 -12 -23 4 -44
11 -47 16 -3 5 -16 8 -27 5 -28 -5 -93 13 -114 31 -9 8 -19 11 -22 7 -4 -3 -7
-1 -7 6 0 8 6 11 16 7 9 -4 22 -2 29 4 8 7 15 3 23 -15 12 -26 41 -34 43 -12
0 10 2 10 6 0 2 -7 9 -13 14 -13 4 0 6 7 3 15 -4 8 -1 15 5 15 6 0 11 -6 11
-14 0 -8 7 -16 15 -20 9 -3 15 0 15 10 0 9 -5 12 -12 8 -7 -4 -10 -4 -6 1 4 4
3 14 -3 22 -9 9 -8 13 0 13 6 0 11 -5 11 -11 0 -5 5 -7 10 -4 6 4 10 3 9 -2
-4 -26 4 -40 31 -50 25 -9 30 -9 30 3 0 16 2 16 24 8 9 -3 14 -9 11 -13 -2 -4
2 -8 10 -8 8 0 12 4 9 9 -6 9 32 5 42 -5 11 -10 24 -8 24 4 0 5 -4 7 -10 4 -5
-3 -10 -1 -10 5 0 7 6 10 12 8 7 -3 21 4 32 14 11 10 29 18 40 17 21 -1 21 -1
1 -7 -18 -6 -20 -12 -16 -40 1 -12 59 -13 66 -1 4 5 11 9 16 9 6 0 7 -4 4 -10
-6 -10 9 -15 30 -10 6 1 30 4 54 5 44 4 59 10 48 21 -4 4 -13 2 -21 -5 -11 -9
-15 -9 -18 1 -4 10 -8 10 -21 -1 -10 -7 -17 -9 -17 -3 0 14 27 23 47 15 12 -5
14 -3 8 7 -5 9 -4 11 3 6 12 -7 16 4 13 34 -2 13 -1 13 8 0 5 -8 8 -18 5 -22
-3 -4 0 -16 5 -27 11 -19 45 -19 57 1 3 5 -5 6 -20 2 -17 -4 -26 -2 -26 6 0 6
5 8 10 5 6 -4 17 -1 25 5 15 12 20 4 16 -25 -1 -5 6 -1 14 9 12 16 12 22 2 28
-8 6 -6 8 8 6 12 -2 19 2 18 10 -3 14 -1 14 21 6 9 -3 16 -11 16 -16 0 -6 -7
-8 -15 -5 -14 6 -32 -10 -22 -19 7 -7 67 24 67 35 0 5 -10 15 -22 24 -18 12
-19 15 -6 13 10 -1 30 -13 45 -27 27 -23 27 -24 8 0 -15 17 -16 22 -5 20 20
-4 70 30 70 47 0 8 3 14 6 14 4 0 4 -9 1 -19z m-927 -18 c-11 -8 -18 -18 -15
-22 2 -5 -1 -16 -8 -25 -11 -15 -14 -14 -31 15 -11 19 -14 29 -6 24 10 -6 12
-4 7 8 -4 11 -2 14 9 10 16 -6 19 -23 3 -23 -5 0 -7 -4 -4 -10 3 -5 11 -10 16
-10 6 0 8 4 4 9 -3 5 1 16 9 24 8 8 12 18 8 21 -3 4 2 4 11 0 17 -6 16 -8 -3
-21z m55 -5 c5 -4 0 -6 -12 -6 -13 1 -19 7 -16 15 3 8 8 10 12 6 3 -4 10 -11
16 -15z m790 -6 c-3 -3 -11 0 -18 7 -9 10 -8 11 6 5 10 -3 15 -9 12 -12z m-91
-8 c3 -8 2 -12 -4 -9 -6 3 -10 10 -10 16 0 14 7 11 14 -7z m-750 -28 c-3 -14
-11 -26 -16 -26 -5 0 -7 6 -4 13 3 6 9 20 12 30 10 27 16 13 8 -17z m93 12 c0
-13 4 -31 8 -40 4 -11 3 -18 -5 -18 -6 0 -9 3 -6 8 8 14 -21 42 -47 44 -14 1
-23 6 -21 10 3 5 16 5 30 2 14 -4 24 -2 24 5 0 22 16 11 17 -11z m25 -10 c-4
-16 -2 -19 8 -13 9 6 11 4 5 -4 -10 -18 -29 3 -22 23 9 24 16 19 9 -6z m599
-11 c-10 -9 -11 -8 -5 6 3 10 9 15 12 12 3 -3 0 -11 -7 -18z m-433 -23 c8 -8
8 -15 2 -19 -6 -3 -10 -1 -10 5 0 6 -4 8 -10 5 -5 -3 -10 0 -10 7 0 10 -3 9
-9 -2 -6 -8 -7 -18 -4 -23 3 -5 -4 -4 -16 2 -24 13 -29 26 -6 17 9 -3 15 0 15
9 0 17 32 16 48 -1z m292 2 c0 -15 -24 -16 -37 -1 -4 4 -3 5 4 1 6 -3 14 -2
18 4 9 14 15 12 15 -4z m-133 -38 c-3 -8 -6 -5 -6 6 -1 11 2 17 5 13 3 -3 4
-12 1 -19z m33 7 c0 6 10 11 23 12 21 2 21 1 -3 -12 -33 -19 -40 -18 -40 3 0
14 2 15 10 2 5 -8 10 -10 10 -5z m80 -9 c0 -2 -7 -7 -16 -10 -8 -3 -12 -2 -9
4 6 10 25 14 25 6z m1731 -121 c38 -78 37 -111 -3 -171 -33 -47 -81 -80 -128
-86 -25 -3 -25 -1 -32 82 -3 47 -11 98 -17 113 -6 16 -11 30 -11 32 0 3 33 29
72 59 81 61 74 63 119 -29z m-3636 28 c56 -42 64 -51 60 -73 -3 -14 -8 -67
-12 -119 l-6 -93 -35 5 c-75 13 -152 97 -152 167 0 38 54 160 71 160 5 0 39
-21 74 -47z m3285 -365 c-11 -14 -90 15 -127 47 -21 18 -36 35 -33 38 3 3 37
23 75 46 l70 40 11 -82 c5 -45 8 -85 4 -89z m-2962 125 c31 -21 59 -39 61 -40
3 -2 -10 -19 -29 -38 -22 -23 -48 -37 -79 -44 -25 -5 -47 -9 -48 -8 -5 6 22
167 29 167 5 0 34 -17 66 -37z m2622 -143 c0 -6 18 -30 40 -54 46 -50 48 -59
18 -80 -48 -34 -123 -14 -173 46 l-27 32 64 32 c69 36 78 39 78 24z m-2296
-31 l57 -31 -24 -31 c-41 -53 -141 -71 -191 -34 -15 11 -11 19 36 69 29 31 56
57 59 57 3 1 31 -13 63 -30z m1189 -543 c62 -61 143 -99 223 -104 60 -4 60 -4
84 -49 112 -211 422 -210 526 3 l26 54 69 0 c63 0 74 -3 120 -35 28 -19 70
-40 92 -46 64 -17 305 -5 397 20 41 11 80 21 85 20 19 0 -101 -101 -197 -165
-81 -54 -283 -164 -301 -164 -3 0 -20 27 -39 60 -18 33 -36 60 -41 60 -4 0
-61 -24 -125 -54 -64 -30 -142 -61 -173 -70 -140 -41 -307 -38 -396 8 -27 13
-77 48 -113 77 -83 66 -146 96 -242 110 -145 23 -267 -14 -401 -121 -108 -85
-152 -100 -292 -100 -132 0 -224 24 -376 96 -66 32 -125 54 -133 51 -9 -4 -28
-31 -43 -62 -15 -30 -31 -55 -37 -55 -15 0 -194 98 -260 143 -99 66 -243 175
-252 188 -5 9 -1 10 17 5 161 -46 176 -49 329 -50 145 -1 158 0 200 23 25 13
56 32 69 42 17 14 40 19 85 19 71 0 75 -3 98 -51 56 -121 185 -185 324 -159
102 19 145 53 218 173 14 23 23 27 60 27 100 0 198 52 276 147 l45 54 14 -23
c8 -13 37 -45 64 -72z m-693 69 c84 -43 80 -145 -7 -182 -113 -47 -189 124
-82 183 32 17 54 17 89 -1z m1326 -10 c60 -39 47 -142 -21 -171 -71 -29 -135
14 -135 91 1 86 83 128 156 80z m-544 -597 c72 -38 141 -111 176 -186 23 -50
27 -69 26 -152 0 -123 -25 -188 -100 -269 -78 -85 -151 -116 -270 -116 -82 0
-96 3 -156 33 -246 125 -299 436 -107 623 122 119 285 145 431 67z m-1887
-652 c26 -17 55 -74 55 -108 0 -37 -37 -88 -76 -104 -99 -41 -197 67 -147 162
35 67 109 89 168 50z m3532 13 c67 -25 103 -95 79 -153 -37 -88 -141 -106
-201 -34 -23 28 -27 39 -23 80 5 50 33 92 73 108 28 12 39 12 72 -1z"/>
<path d="M5054 8220 c-11 -4 -34 -24 -52 -44 -54 -62 -55 -149 -2 -210 39 -44
79 -60 140 -54 155 15 201 217 68 298 -35 21 -114 26 -154 10z"/>
<path d="M3677 5748 c-10 -10 -22 -16 -27 -13 -6 4 -10 2 -10 -3 0 -5 9 -12
20 -15 11 -3 18 -2 15 3 -2 4 4 15 14 24 17 15 20 15 34 2 13 -14 16 -14 21 0
3 8 2 12 -4 9 -6 -3 -10 -2 -10 2 0 16 -35 10 -53 -9z"/>
<path d="M3703 5734 c8 -8 -25 -44 -35 -38 -4 3 -8 0 -8 -6 0 -6 -5 -8 -10 -5
-6 4 -8 11 -5 16 4 5 1 9 -5 9 -6 0 -8 -10 -4 -26 4 -16 3 -25 -2 -21 -6 3
-11 -3 -11 -15 -2 -20 -2 -20 16 1 10 12 23 21 28 21 6 0 18 11 29 24 10 14
21 23 26 20 4 -3 5 2 2 10 -3 9 -11 16 -17 16 -6 0 -8 -3 -4 -6z"/>
<path d="M3601 5644 c0 -11 3 -14 6 -6 3 7 2 16 -1 19 -3 4 -6 -2 -5 -13z"/>
<path d="M6707 5654 c-3 -4 5 -15 18 -26 14 -11 23 -24 20 -29 -4 -5 1 -6 10
-2 13 5 14 7 3 14 -10 7 -10 9 0 9 21 0 26 -4 29 -23 2 -12 -1 -16 -9 -11 -9
6 -9 3 1 -9 15 -19 35 -12 27 9 -3 8 1 14 9 14 8 0 15 5 15 11 0 6 -6 9 -14 6
-7 -3 -20 3 -29 14 -17 19 -43 27 -32 9 3 -5 -1 -10 -9 -10 -9 0 -15 5 -13 11
2 13 -16 23 -26 13z"/>
<path d="M6645 5640 c3 -5 8 -10 11 -10 2 0 4 5 4 10 0 6 -5 10 -11 10 -5 0
-7 -4 -4 -10z"/>
<path d="M3354 5573 c-26 -28 -26 -37 0 -27 9 4 15 13 12 20 -4 10 0 11 18 4
27 -10 56 3 35 16 -26 16 -41 13 -65 -13z"/>
<path d="M3490 5565 c7 -8 17 -12 22 -9 6 4 5 10 -3 15 -22 14 -33 10 -19 -6z"/>
<path d="M6725 5570 c-8 -13 5 -13 25 0 13 8 13 10 -2 10 -9 0 -20 -4 -23 -10z"/>
<path d="M6809 5527 c6 -8 7 -18 3 -22 -4 -5 -1 -5 6 -1 10 6 10 11 1 22 -6 8
-14 14 -16 14 -3 0 0 -6 6 -13z"/>
<path d="M6860 5500 c0 -5 -8 -6 -17 -3 -17 6 -17 6 0 -11 10 -10 21 -16 24
-12 4 3 3 6 -2 6 -4 0 -2 7 5 15 9 10 9 15 1 15 -6 0 -11 -4 -11 -10z"/>
<path d="M6990 5411 c0 -7 -4 -9 -10 -6 -5 3 -10 -3 -10 -14 0 -26 13 -33 33
-18 14 11 14 14 2 31 -8 11 -15 14 -15 7z m2 -33 c-7 -7 -12 -8 -12 -2 0 14
12 26 19 19 2 -3 -1 -11 -7 -17z"/>
<path d="M7125 5260 c-3 -5 -1 -18 5 -27 10 -17 10 -16 8 2 -2 12 2 19 10 17
8 -1 11 2 7 8 -8 13 -22 13 -30 0z"/>
<path d="M7210 5185 c0 -8 5 -15 10 -15 6 0 10 7 10 15 0 8 -4 15 -10 15 -5 0
-10 -7 -10 -15z"/>
<path d="M2823 4913 c-4 -10 -11 -21 -17 -25 -8 -5 -7 -11 2 -20 10 -10 15 -9
27 5 8 9 10 12 3 7 -19 -16 -32 -12 -17 6 13 16 21 44 13 44 -3 0 -8 -8 -11
-17z"/>
<path d="M4575 5370 c-4 -6 -11 -7 -17 -4 -6 4 -8 2 -4 -4 3 -6 2 -14 -4 -17
-8 -5 -8 -11 0 -20 8 -9 6 -14 -5 -19 -9 -3 -14 -10 -11 -15 4 -5 1 -11 -6
-13 -7 -3 -5 -7 6 -11 11 -5 15 -3 10 5 -5 8 -2 9 9 5 18 -7 33 8 18 18 -6 3
-8 12 -4 21 4 12 8 12 21 2 12 -10 14 -10 8 0 -4 7 -2 12 5 12 8 0 6 6 -4 18
-10 10 -14 22 -10 25 3 4 4 7 0 7 -3 0 -9 -5 -12 -10z m8 -23 c3 -8 -3 -14
-15 -14 -16 -2 -17 1 -8 13 15 17 17 17 23 1z"/>
<path d="M4565 5251 c-3 -5 -2 -12 3 -15 5 -3 9 1 9 9 0 17 -3 19 -12 6z"/>
<path d="M5571 4506 c-10 -12 -8 -13 8 -9 12 3 21 9 21 14 0 14 -16 11 -29 -5z"/>
<path d="M4748 4453 c7 -3 16 -2 19 1 4 3 -2 6 -13 5 -11 0 -14 -3 -6 -6z"/>
<path d="M4690 4426 c0 -2 7 -7 16 -10 8 -3 12 -2 9 4 -6 10 -25 14 -25 6z"/>
<path d="M4965 4320 c30 -8 122 -13 114 -6 -2 2 -35 6 -74 9 -42 3 -58 2 -40
-3z"/>
<path d="M4910 4810 c-9 -6 -10 -10 -3 -10 7 0 10 -9 8 -21 -4 -17 -2 -19 11
-9 10 9 11 16 4 25 -5 6 -7 15 -3 18 9 10 0 8 -17 -3z"/>
<path d="M5301 4754 c0 -11 3 -14 6 -6 3 7 2 16 -1 19 -3 4 -6 -2 -5 -13z"/>
<path d="M5045 4741 c-6 -11 13 -26 22 -17 4 3 1 6 -6 6 -7 0 -9 5 -6 10 3 6
4 10 1 10 -3 0 -7 -4 -11 -9z"/>
<path d="M5106 4732 c-2 -4 -1 -14 5 -22 7 -12 9 -10 9 8 0 23 -5 28 -14 14z"/>
<path d="M5680 4271 c0 -6 4 -13 10 -16 6 -3 7 1 4 9 -7 18 -14 21 -14 7z"/>
<path d="M5685 4219 c-4 -6 -4 -13 -1 -16 3 -4 6 -1 6 6 0 7 4 10 9 6 5 -3 12
-1 16 5 3 5 -1 10 -9 10 -8 0 -18 -5 -21 -11z"/>
<path d="M5593 4165 c0 -8 4 -12 9 -9 5 3 6 10 3 15 -9 13 -12 11 -12 -6z"/>
<path d="M4760 4120 c0 -5 5 -10 10 -10 6 0 10 5 10 10 0 6 -4 10 -10 10 -5 0
-10 -4 -10 -10z"/>
<path d="M5100 4080 c0 -5 7 -10 15 -10 8 0 15 5 15 10 0 6 -7 10 -15 10 -8 0
-15 -4 -15 -10z"/>
<path d="M5050 2298 c-76 -39 -109 -124 -76 -201 19 -46 77 -94 125 -102 102
-17 211 93 187 188 -16 66 -102 137 -166 137 -14 0 -46 -10 -70 -22z"/>
<path d="M3985 8856 c-102 -44 -118 -185 -29 -255 32 -25 101 -28 145 -6 71
37 94 154 42 216 -28 32 -78 59 -110 59 -10 -1 -32 -7 -48 -14z"/>
<path d="M6153 8850 c-94 -42 -112 -158 -38 -232 79 -79 204 -42 234 69 21 74
-25 152 -100 173 -44 13 -47 13 -96 -10z"/>
<path d="M2770 8237 c-13 -7 -35 -28 -48 -47 -20 -29 -23 -44 -19 -89 3 -46 9
-59 39 -86 47 -43 95 -52 153 -26 36 16 50 29 65 63 11 24 20 51 20 60 0 38
-33 98 -65 118 -37 23 -107 26 -145 7z"/>
<path d="M7338 8234 c-57 -30 -79 -130 -43 -191 54 -92 199 -82 239 17 9 22
16 48 16 58 -1 36 -39 101 -69 116 -38 20 -107 20 -143 0z"/>
<path d="M1624 6955 c-90 -96 -32 -235 99 -235 40 0 53 5 83 33 67 61 65 151
-5 210 -27 22 -42 27 -88 27 -51 0 -59 -3 -89 -35z"/>
<path d="M8448 6967 c-29 -23 -58 -82 -58 -118 0 -11 8 -37 17 -56 43 -92 180
-98 233 -10 39 64 14 162 -50 194 -41 21 -111 16 -142 -10z"/>
<path d="M1440 5803 c-60 -55 -55 -137 10 -181 57 -39 121 -18 156 50 18 35
18 62 -1 98 -32 62 -115 78 -165 33z"/>
<path d="M8693 5820 c-30 -12 -63 -67 -63 -103 0 -70 67 -126 134 -111 40 8
65 30 83 72 17 41 5 87 -31 121 -27 25 -89 36 -123 21z"/>
<path d="M1644 3571 c-63 -38 -82 -139 -37 -200 42 -57 125 -74 184 -38 55 33
79 139 45 192 -40 61 -131 83 -192 46z"/>
<path d="M8457 3573 c-42 -27 -70 -93 -62 -145 13 -73 92 -126 167 -111 95 19
131 164 59 237 -38 38 -120 47 -164 19z"/>
<path d="M2805 2320 c-44 -10 -73 -31 -90 -66 -40 -84 2 -182 87 -205 52 -14
98 2 138 47 26 30 30 43 30 89 0 48 -4 60 -32 91 -36 38 -84 54 -133 44z"/>
<path d="M7352 2314 c-55 -28 -88 -98 -76 -162 9 -47 63 -98 113 -107 112 -19
200 124 136 221 -36 56 -115 77 -173 48z"/>
<path d="M3980 1683 c-98 -50 -107 -189 -16 -248 34 -22 108 -23 141 -1 84 55
87 191 6 239 -44 26 -92 30 -131 10z"/>
<path d="M6173 1689 c-44 -9 -63 -26 -86 -78 -24 -55 -17 -99 24 -146 84 -95
239 -38 239 88 0 95 -80 157 -177 136z"/>
</g>
</svg>
